<?xml version="1.0" encoding="UTF-8" standalone="no"?>
<svg
   xmlns:dc="http://purl.org/dc/elements/1.1/"
   xmlns:cc="http://creativecommons.org/ns#"
   xmlns:rdf="http://www.w3.org/1999/02/22-rdf-syntax-ns#"
   xmlns:svg="http://www.w3.org/2000/svg"
   xmlns="http://www.w3.org/2000/svg"
   xmlns:sodipodi="http://sodipodi.sourceforge.net/DTD/sodipodi-0.dtd"
   xmlns:inkscape="http://www.inkscape.org/namespaces/inkscape"
   version="1.1"
   x="0px"
   y="0px"
   viewBox="0 0 30 37.5"
   xml:space="preserve"
   id="svg24"
   sodipodi:docname="noun_versus_584442.svg"
   inkscape:version="0.92.5 (2060ec1f9f, 2020-04-08)"><metadata
     id="metadata30"><rdf:RDF><cc:Work
         rdf:about=""><dc:format>image/svg+xml</dc:format><dc:type
           rdf:resource="http://purl.org/dc/dcmitype/StillImage" /></cc:Work></rdf:RDF></metadata><defs
     id="defs28" /><sodipodi:namedview
     pagecolor="#ffffff"
     bordercolor="#666666"
     borderopacity="1"
     objecttolerance="10"
     gridtolerance="10"
     guidetolerance="10"
     inkscape:pageopacity="0"
     inkscape:pageshadow="2"
     inkscape:window-width="1920"
     inkscape:window-height="1022"
     id="namedview26"
     showgrid="false"
     inkscape:zoom="17.800235"
     inkscape:cx="12.212823"
     inkscape:cy="18.054754"
     inkscape:window-x="0"
     inkscape:window-y="0"
     inkscape:window-maximized="1"
     inkscape:current-layer="g16" /><g
     transform="translate(-30 -260)"
     id="g18"><g
       id="g16"><polygon
         points="52,264 52,263 46,263 46,266 47,266 51,266 51,267 46,267 46,268 52,268 52,265 47,265 47,264   "
         id="polygon2"
         style="fill:#ffffff" /><polygon
         points="44,263 44,264 43,264 43,265 42,265 42,266 41,266 41,265 40,265 40,264 39,264 39,263 38,263 38,265 39,265     39,266 40,266 40,267 41,267 41,268 42,268 42,267 43,267 43,266 44,266 44,265 45,265 45,263   "
         id="polygon4"
         style="fill:#ffffff" /><rect
         x="31"
         y="286"
         width="28"
         height="1"
         id="rect6"
         style="fill:#ffffff" /><polygon
         points="41,275 38,272 35,272 35,274 36,274 36,273 37.4,273 35,277 35,281 33,285 34,285 37,282 37,280 38,280.5 38,285     39,285 40,280 38.167,278.777 40,276.334 40,278 44,278 44,277 41,277   "
         id="polygon8"
         style="fill:#ffffff" /><polygon
         points="55,281 55,277 52.601,273 54,273 54,274 55,274 55,272 52,272 49,275 49,277 46,277 46,278 50,278 50,276.334     51.834,278.777 50,280 51,285 52,285 52,280.5 53,280 53,282 56,285 57,285   "
         id="polygon10"
         style="fill:#ffffff" /><rect
         x="40"
         y="271"
         width="2"
         height="2"
         id="rect12"
         style="fill:#ffffff" /><rect
         x="48"
         y="271"
         width="2"
         height="2"
         id="rect14"
         style="fill:#ffffff" /></g></g><text
     x="0"
     y="45"
     fill="#000000"
     font-size="5px"
     font-weight="bold"
     font-family="'Helvetica Neue', Helvetica, Arial-Unicode, Arial, Sans-serif"
     id="text20">Created by Hea Poh Lin</text>
<text
     x="0"
     y="50"
     fill="#000000"
     font-size="5px"
     font-weight="bold"
     font-family="'Helvetica Neue', Helvetica, Arial-Unicode, Arial, Sans-serif"
     id="text22">from the Noun Project</text>
</svg>